<svg width="19" height="19" viewBox="0 0 19 19" fill="none" xmlns="http://www.w3.org/2000/svg">
<path d="M9.39502 18.79C14.6329 18.79 18.79 14.5498 18.79 9.39502C18.79 4.15709 14.5498 0 9.39502 0C4.15709 0 0 4.24023 0 9.39502C0 14.5498 4.24023 18.79 9.39502 18.79Z" fill="#2C374B"/>
<path fill-rule="evenodd" clip-rule="evenodd" d="M14.5492 5.98612C14.4661 5.90298 10.3922 3.49187 9.8933 3.32559C9.72702 3.24245 9.31131 3.1593 9.06188 3.24245C8.81246 3.32559 4.48909 5.81984 4.3228 5.98612C4.23966 6.06927 4.15652 6.23555 4.07338 6.31869C3.99023 6.48497 3.99023 6.56812 3.99023 9.47808V12.4712L4.57223 12.8038C4.90479 12.97 5.15422 13.1363 5.15422 13.1363C5.23736 13.1363 9.14502 6.90068 9.14502 6.81754C9.14502 6.7344 8.23047 6.7344 7.98104 6.81754C7.64847 6.90068 7.39905 7.06697 7.23276 7.23325C7.14962 7.31639 6.65077 8.14781 5.98564 9.06237C5.40364 9.97693 4.90479 10.8083 4.90479 10.8083C4.90479 10.8083 4.90479 9.97693 4.90479 8.81294V6.7344L4.98794 6.65126C5.15422 6.48498 9.39445 4.07386 9.56073 4.07386C9.64388 4.07386 9.72702 4.07386 10.7247 4.65586C11.0573 4.82214 11.9718 5.32099 12.7201 5.81984C13.4684 6.23555 14.1335 6.65126 14.2167 6.7344L14.2998 6.81754V11.1409L12.2213 7.89839C12.1381 7.7321 12.055 7.56582 11.9718 7.48268C11.9718 7.48268 11.8887 7.64896 11.3899 8.48038C11.3067 8.56352 11.2236 8.7298 11.2236 8.81294L11.1404 8.97923L11.2236 9.06237L11.3067 9.14551C11.3067 9.14551 11.3067 9.22865 11.3899 9.22865L11.5561 9.47808C11.5561 9.47808 11.5561 9.56122 11.6393 9.56122C11.7224 9.64436 11.8056 9.81065 11.8056 9.89379C11.8056 9.89379 11.8056 9.89379 11.8056 9.97693L13.5515 12.8038L13.3853 12.8869C13.3021 12.97 13.219 12.97 13.1358 12.97L10.9741 9.64436L10.891 9.56122L10.7247 9.89379L9.8933 11.2241L11.5561 13.8846C11.3067 14.0509 9.8933 15.0486 9.81016 15.0486C9.72702 15.0486 7.81476 13.8014 7.8979 13.7183C7.8979 13.7183 8.47989 12.7206 9.14502 11.5566C9.72702 10.5589 10.4753 9.3118 10.9741 8.48038C11.5561 7.48268 11.8056 6.98383 11.8056 6.98383C11.8056 6.98383 11.3899 6.98383 10.891 6.98383H10.0596L8.14732 10.1432C7.48219 11.3072 6.81705 12.388 6.48449 12.97C5.9025 13.0532 5.73621 13.2195 5.73621 13.2195L5.65307 13.3857L7.14962 14.2172C7.98104 14.716 8.72931 15.1317 8.8956 15.2149C9.14502 15.3811 9.56073 15.3811 9.72702 15.3811C9.8933 15.298 14.2167 12.8037 14.4661 12.6375C14.5492 12.5543 14.6324 12.4712 14.7155 12.3049L14.7987 12.0555V9.3118V6.56812L14.7155 6.40183C14.7155 6.23555 14.5492 6.06927 14.5492 5.98612Z" fill="white"/>
<path d="M14.1334 11.0579L11.6392 7.2334L10.7246 8.72995L13.1357 12.6376L14.2166 12.1388L14.1334 11.0579Z" fill="#24A2EE"/>
<path d="M12.9696 13.136L10.4754 9.31152L9.39453 10.9744L11.3899 14.1337L12.6371 13.6349L12.9696 13.136Z" fill="#24A2EE"/>
<path fill-rule="evenodd" clip-rule="evenodd" d="M4.82081 6.734L9.39361 4.07346L13.9664 6.734V12.0551L9.39361 14.7156L5.98479 12.8033L5.56908 13.5516L9.31046 15.7133C9.39361 15.7965 9.47675 15.7965 9.55989 15.7133L14.7978 12.7202C14.881 12.6371 14.9641 12.5539 14.9641 12.4708V6.48457C14.9641 6.40143 14.881 6.31829 14.7978 6.23515L9.55989 3.24204C9.47675 3.1589 9.39361 3.1589 9.31046 3.24204L4.07253 6.15201C3.98939 6.23515 3.90625 6.31829 3.90625 6.40143V12.3876C3.90625 12.4708 3.98939 12.5539 4.07253 12.6371L5.15338 13.2191L5.65223 12.4708L4.90395 12.0551V6.734H4.82081Z" fill="#98BCDC"/>
<path d="M11.3902 6.73438H9.64426L5.57031 13.3857L6.98372 14.2171L11.3902 6.73438Z" fill="white"/>
<path d="M6.9825 7.40003C7.3982 6.73489 8.56219 6.73489 9.06104 6.81803L5.07024 13.22C4.90395 13.1368 4.57138 12.9705 4.32196 12.8042C3.98939 12.638 3.90625 12.638 3.90625 12.3885V12.056C4.82081 10.7257 6.56679 8.06516 6.9825 7.40003Z" fill="white"/>
</svg>
