<svg width="198" height="122" viewBox="0 0 198 122" fill="none" xmlns="http://www.w3.org/2000/svg">
<rect width="198" height="121.209" fill="white" fill-opacity="0.01"/>
<path opacity="0.8" fill-rule="evenodd" clip-rule="evenodd" d="M39.756 22.7083C41.7921 16.3043 43.6869 12.3172 45.4374 10.7452C50.2849 6.39443 56.9873 8.7623 58.4123 9.10144C63.418 10.2961 61.7903 2.43474 66.0851 0.836809C68.9473 -0.227968 71.3012 1.0736 73.1484 4.7415C74.7837 1.31955 77.2758 -0.247828 80.6247 0.0317335C85.6488 0.454895 87.407 17.337 94.3105 13.6416C101.216 9.94471 109.681 9.09991 113.297 14.5934C114.078 15.7819 114.378 13.938 119.694 7.64253C125.01 1.34552 130.31 -1.42871 141.185 2.23767C146.129 3.90282 150.195 8.41705 153.387 15.7788C153.387 26.2861 161.157 32.5067 176.693 34.4361C200 37.331 181.909 62.2609 153.387 69.5616C124.864 76.8638 59.1954 80.8051 23.5597 62.3571C-0.19749 50.061 5.2013 36.8437 39.7545 22.7083H39.756Z" fill="url(#paint0_linear_226_3846)"/>
<path d="M98.1965 115.559C121.93 115.559 141.17 111.128 141.17 105.663C141.17 100.197 121.93 95.7666 98.1965 95.7666C74.4627 95.7666 55.2227 100.197 55.2227 105.663C55.2227 111.128 74.4627 115.559 98.1965 115.559Z" fill="url(#paint1_linear_226_3846)"/>
<path opacity="0.675" fill-rule="evenodd" clip-rule="evenodd" d="M170.748 118.011C138.437 126.074 28.147 116.852 16.4081 112.64C10.6946 110.588 5.54451 106.731 0.959534 101.066C0.446372 100.433 0.123818 99.668 0.029144 98.86C-0.0655299 98.0519 0.071541 97.2337 0.424517 96.4999C0.777493 95.7661 1.33197 95.1466 2.02387 94.713C2.71577 94.2795 3.51685 94.0495 4.33455 94.0498H197.06C201.06 104.649 192.29 112.635 170.748 118.011Z" fill="url(#paint2_linear_226_3846)"/>
<path d="M131.173 79.1418L116.477 62.0443C116.13 61.6364 115.698 61.3078 115.211 61.0811C114.724 60.8544 114.194 60.7348 113.656 60.7305H82.056C80.9719 60.7305 79.9416 61.2254 79.2353 62.0443L64.5391 79.1418V88.5277H131.173V79.1418Z" fill="url(#paint3_linear_226_3846)"/>
<path d="M127.009 88.8733L114.146 73.9817C113.835 73.6301 113.452 73.3492 113.022 73.1581C112.592 72.967 112.126 72.8701 111.655 72.8741H84.0565C83.1091 72.8741 82.1832 73.2652 81.5659 73.9817L68.7031 88.8733V97.0524H127.009V88.8733Z" fill="url(#paint4_linear_226_3846)"/>
<path d="M131.173 99.284C131.173 100.587 130.584 101.759 129.653 102.544L129.464 102.697C128.726 103.253 127.826 103.554 126.9 103.552H68.8139C68.2887 103.552 67.7866 103.458 67.3229 103.283L67.0926 103.192C66.3327 102.855 65.6871 102.307 65.2339 101.613C64.7807 100.919 64.5394 100.11 64.5391 99.2824V79.2441H80.7063C82.492 79.2441 83.9308 80.7061 83.9308 82.4797V82.5026C83.9308 84.2778 85.3864 85.7092 87.1722 85.7092H108.54C109.398 85.7084 110.222 85.3692 110.829 84.7659C111.437 84.1626 111.779 83.3444 111.782 82.4904C111.782 80.7092 113.222 79.2441 115.006 79.2441H131.175L131.173 99.284Z" fill="url(#paint5_linear_226_3846)"/>
<defs>
<linearGradient id="paint0_linear_226_3846" x1="102.39" y1="56.447" x2="79.743" y2="-218.268" gradientUnits="userSpaceOnUse">
<stop stop-color="#B8B8B8" stop-opacity="0"/>
<stop offset="1" stop-color="#515151" stop-opacity="0.3"/>
</linearGradient>
<linearGradient id="paint1_linear_226_3846" x1="93.7186" y1="115.559" x2="93.7186" y2="95.7666" gradientUnits="userSpaceOnUse">
<stop stop-color="#E7E7E7" stop-opacity="0"/>
<stop offset="1" stop-color="#6F768D" stop-opacity="0.373"/>
</linearGradient>
<linearGradient id="paint2_linear_226_3846" x1="99.1712" y1="127.22" x2="99.3369" y2="36.9095" gradientUnits="userSpaceOnUse">
<stop stop-color="#696969" stop-opacity="0"/>
<stop offset="1" stop-color="#919191" stop-opacity="0.15"/>
</linearGradient>
<linearGradient id="paint3_linear_226_3846" x1="97.8562" y1="60.7305" x2="97.8562" y2="73.2253" gradientUnits="userSpaceOnUse">
<stop stop-color="#CCC9C9"/>
<stop offset="1" stop-color="#B0B0B0"/>
</linearGradient>
<linearGradient id="paint4_linear_226_3846" x1="105.637" y1="97.0524" x2="105.637" y2="71.5887" gradientUnits="userSpaceOnUse">
<stop stop-color="#D6D6D6"/>
<stop offset="1" stop-color="#E7E7E7"/>
</linearGradient>
<linearGradient id="paint5_linear_226_3846" x1="97.8569" y1="79.2441" x2="97.8569" y2="103.552" gradientUnits="userSpaceOnUse">
<stop stop-color="#D2D2D2"/>
<stop offset="1" stop-color="#BEBEBE"/>
</linearGradient>
</defs>
</svg>
