<svg width="24" height="24" viewBox="0 0 24 24" fill="none" xmlns="http://www.w3.org/2000/svg">
<path d="M12 24C18.6274 24 24 18.6274 24 12C24 5.37258 18.6274 0 12 0C5.37258 0 0 5.37258 0 12C0 18.6274 5.37258 24 12 24Z" fill="#627EEA"/>
<path d="M12.374 2.99829V9.65111L17.9968 12.164L12.374 2.99829Z" fill="white" fill-opacity="0.602"/>
<path d="M12.374 2.99829L6.75122 12.164L12.374 9.65111V2.99829Z" fill="white"/>
<path d="M12.374 16.4743V20.9948L18 13.2102L12.374 16.4743Z" fill="white" fill-opacity="0.602"/>
<path d="M12.374 20.9948V16.4743L6.75122 13.2102L12.374 20.9948Z" fill="white"/>
<path d="M12.374 15.4281L17.9968 12.164L12.374 9.65112V15.4281Z" fill="white" fill-opacity="0.2"/>
<path d="M6.75122 12.164L12.374 15.4281V9.65112L6.75122 12.164Z" fill="white" fill-opacity="0.602"/>
</svg>
